<?xml version="1.0" encoding="UTF-8" standalone="no"?>
<!-- Uploaded to: SVG Repo, www.svgrepo.com, Transformed by: SVG Repo Mixer Tools -->

<svg
   width="186.49171"
   height="183.88095"
   viewBox="0 0 11.189503 11.032857"
   fill="none"
   stroke="#5e5c64"
   version="1.1"
   id="svg80"
   xml:space="preserve"
   xmlns="http://www.w3.org/2000/svg"
   xmlns:svg="http://www.w3.org/2000/svg"><defs
     id="defs84" /><g
     id="SVGRepo_iconCarrier"
     transform="translate(-48.476363,-28.252663)"><path
       d="m 36.217783,29.959987 h -5.267506 c -0.415595,0 -0.752501,0.336895 -0.752501,0.752501 v 9.78251 c 0,0.415607 0.336906,0.752501 0.752501,0.752501 h 13.545014 c 0.415607,0 0.761638,-0.336995 0.752501,-0.752501 l -0.07797,-3.545831"
       stroke="#77767b"
       stroke-width="1.505"
       stroke-linecap="round"
       stroke-linejoin="round"
       id="path69"
       style="stroke-width:1.02;stroke-dasharray:none" /><path
       d="m 32.455279,34.851242 h 3.762504"
       stroke="#77767b"
       stroke-width="1.505"
       stroke-linecap="round"
       id="path71"
       style="stroke-width:1.02;stroke-dasharray:none" /><path
       d="M 32.455279,37.861246 H 42.99029"
       stroke="#77767b"
       stroke-width="1.505"
       stroke-linecap="round"
       id="path73"
       style="stroke-width:1.02;stroke-dasharray:none" /><circle
       cx="41.485287"
       cy="32.217491"
       fill="none"
       stroke="#77767b"
       stroke-width="1.505"
       stroke-linecap="round"
       stroke-linejoin="round"
       id="circle75"
       r="2.2575023"
       style="stroke-width:1.02;stroke-dasharray:none" /><path
       d="m 45.143121,36.846355 c -0.734892,-1.435922 -2.199974,-2.415039 -3.887381,-2.415039 -2.045636,0 -3.764461,1.438895 -4.251818,3.386254"
       stroke="#77767b"
       stroke-width="1.505"
       stroke-linecap="round"
       stroke-linejoin="round"
       id="path77"
       style="stroke-width:1.02;stroke-dasharray:none" /><g
       id="g1250"
       transform="translate(-4.1560896,-1.1211036)"><g
         id="g1714"><rect
           style="fill:#77767b;fill-opacity:1;stroke:#77767b;stroke-width:0.946505;stroke-linecap:round;stroke-linejoin:round;stroke-miterlimit:1.5;stroke-dasharray:none;stroke-opacity:1;paint-order:normal"
           id="rect910"
           width="7.568078"
           height="7.576293"
           x="53.105705"
           y="29.847019"
           ry="0.81164604" /><path
           id="rect2020"
           style="fill:#d1d2ab;fill-opacity:0;stroke:#77767b;stroke-width:0.946505;stroke-linecap:round;stroke-linejoin:round;stroke-miterlimit:1.5;stroke-dasharray:none;stroke-opacity:1;paint-order:normal"
           d="m 60.673781,32.357082 v 4.25461 c 0,0.449651 -0.361989,0.81164 -0.81164,0.81164 h -4.081524 v 1.698399 c 0,0.449651 0.361989,0.81164 0.811641,0.81164 h 5.944804 c 0.449652,0 0.811641,-0.361989 0.811641,-0.81164 v -5.953008 c 0,-0.449652 -0.361989,-0.811641 -0.811641,-0.811641 z" /><rect
           style="fill:#77767b;fill-opacity:1;stroke:#77767b;stroke-width:0.946505;stroke-linecap:round;stroke-linejoin:round;stroke-miterlimit:1.5;stroke-dasharray:none;stroke-opacity:1;paint-order:normal"
           id="rect1057"
           width="7.568078"
           height="7.576293"
           x="55.745911"
           y="32.339344"
           ry="0.81164604" /></g></g></g></svg>
